<svg xmlns="http://www.w3.org/2000/svg" version="1.1" xmlns:xlink="http://www.w3.org/1999/xlink" xmlns:svgjs="http://svgjs.dev/svgjs" width="1500" height="215" viewBox="0 0 1500 215"><g transform="matrix(1,0,0,1,-0.9090909090909918,-0.6102319469212176)"><svg viewBox="0 0 396 57" data-background-color="#ffffff" preserveAspectRatio="xMidYMid meet" height="215" width="1500" xmlns="http://www.w3.org/2000/svg" xmlns:xlink="http://www.w3.org/1999/xlink"><g id="tight-bounds" transform="matrix(1,0,0,1,0.2400000000000091,0.16178242313725377)"><svg viewBox="0 0 395.52 56.67643515372549" height="56.67643515372549" width="395.52"><g><svg viewBox="0 0 523.7330634339055 75.04885469147894" height="56.67643515372549" width="395.52"><g transform="matrix(1,0,0,1,0,8.857943506366308)"><svg viewBox="0 0 395.52 57.33296767874632" height="57.33296767874632" width="395.52"><g id="textblocktransform"><svg viewBox="0 0 395.52 57.33296767874632" height="57.33296767874632" width="395.52" id="textblock"><g><svg viewBox="0 0 395.52 57.33296767874632" height="57.33296767874632" width="395.52"><g transform="matrix(1,0,0,1,0,0)"><svg width="395.52" viewBox="3.7 -36.5 255.23000000000002 37" height="57.33296767874632" data-palette-color="#0080ff"><path d="M10.6 0L3.7 0 3.7-35.5 27.55-35.5 27.55-29.45 10.6-29.45 10.6-20.3 24.7-20.3 24.7-14.7 10.6-14.7 10.6 0ZM42.3 0.5L42.3 0.5Q39.1 0.5 36.55-0.58 34-1.65 32.22-3.55 30.45-5.45 29.5-7.9 28.55-10.35 28.55-13.05L28.55-13.05Q28.55-15.8 29.5-18.25 30.45-20.7 32.22-22.6 34-24.5 36.55-25.58 39.1-26.65 42.3-26.65L42.3-26.65Q45.5-26.65 48.02-25.58 50.55-24.5 52.35-22.6 54.15-20.7 55.07-18.25 56-15.8 56-13.05L56-13.05Q56-10.35 55.07-7.9 54.15-5.45 52.37-3.55 50.6-1.65 48.05-0.58 45.5 0.5 42.3 0.5ZM35.45-13.05L35.45-13.05Q35.45-10.75 36.35-8.97 37.25-7.2 38.8-6.2 40.35-5.2 42.3-5.2L42.3-5.2Q44.2-5.2 45.75-6.23 47.3-7.25 48.22-9.03 49.15-10.8 49.15-13.1L49.15-13.1Q49.15-15.35 48.22-17.15 47.3-18.95 45.75-19.95 44.2-20.95 42.3-20.95L42.3-20.95Q40.35-20.95 38.8-19.93 37.25-18.9 36.35-17.13 35.45-15.35 35.45-13.05ZM76.1-26.5L76.1-20.4Q73.05-20.4 70.65-19.23 68.25-18.05 67.2-15.85L67.2-15.85 67.2 0 60.5 0 60.5-26.2 66.65-26.2 66.65-20.6Q68.05-23.3 70.2-24.85 72.35-26.4 74.75-26.55L74.75-26.55Q75.3-26.55 75.6-26.55 75.9-26.55 76.1-26.5L76.1-26.5ZM120.54-16.35L120.54 0 113.84 0 113.84-14.7Q113.84-17.8 112.77-19.28 111.69-20.75 109.79-20.75L109.79-20.75Q107.84-20.75 106.07-19.23 104.29-17.7 103.54-15.25L103.54-15.25 103.54 0 96.84 0 96.84-14.7Q96.84-17.85 95.77-19.3 94.69-20.75 92.79-20.75L92.79-20.75Q90.84-20.75 89.07-19.25 87.29-17.75 86.54-15.3L86.54-15.3 86.54 0 79.84 0 79.84-26.2 85.89-26.2 85.89-21.35Q87.39-23.9 89.89-25.28 92.39-26.65 95.64-26.65L95.64-26.65Q98.89-26.65 100.72-25.05 102.54-23.45 103.04-21.1L103.04-21.1Q104.64-23.8 107.12-25.23 109.59-26.65 112.69-26.65L112.69-26.65Q115.14-26.65 116.67-25.78 118.19-24.9 119.04-23.43 119.89-21.95 120.22-20.1 120.54-18.25 120.54-16.35L120.54-16.35ZM141.29 0.5L141.29 0.5Q138.29 0.5 135.94-0.85 133.59-2.2 132.24-4.55L132.24-4.55 132.24 0 126.39 0 126.39-36.5 133.09-36.5 133.09-21.6Q134.49-23.95 136.77-25.3 139.04-26.65 142.09-26.65L142.09-26.65Q144.64-26.65 146.74-25.58 148.84-24.5 150.37-22.6 151.89-20.7 152.72-18.25 153.54-15.8 153.54-13L153.54-13Q153.54-10.2 152.62-7.75 151.69-5.3 150.04-3.43 148.39-1.55 146.17-0.53 143.94 0.5 141.29 0.5ZM139.44-5.2L139.44-5.2Q141.04-5.2 142.37-5.83 143.69-6.45 144.67-7.5 145.64-8.55 146.17-9.98 146.69-11.4 146.69-12.95L146.69-12.95Q146.69-15.1 145.82-16.93 144.94-18.75 143.42-19.85 141.89-20.95 139.84-20.95L139.84-20.95Q138.39-20.95 137.07-20.28 135.74-19.6 134.72-18.45 133.69-17.3 133.09-15.85L133.09-15.85 133.09-9.6Q133.39-8.6 134.07-7.8 134.74-7 135.64-6.43 136.54-5.85 137.52-5.53 138.49-5.2 139.44-5.2ZM170.19 0.5L170.19 0.5Q166.99 0.5 164.44-0.58 161.89-1.65 160.11-3.55 158.34-5.45 157.39-7.9 156.44-10.35 156.44-13.05L156.44-13.05Q156.44-15.8 157.39-18.25 158.34-20.7 160.11-22.6 161.89-24.5 164.44-25.58 166.99-26.65 170.19-26.65L170.19-26.65Q173.39-26.65 175.91-25.58 178.44-24.5 180.24-22.6 182.04-20.7 182.96-18.25 183.89-15.8 183.89-13.05L183.89-13.05Q183.89-10.35 182.96-7.9 182.04-5.45 180.26-3.55 178.49-1.65 175.94-0.58 173.39 0.5 170.19 0.5ZM163.34-13.05L163.34-13.05Q163.34-10.75 164.24-8.97 165.14-7.2 166.69-6.2 168.24-5.2 170.19-5.2L170.19-5.2Q172.09-5.2 173.64-6.23 175.19-7.25 176.11-9.03 177.04-10.8 177.04-13.1L177.04-13.1Q177.04-15.35 176.11-17.15 175.19-18.95 173.64-19.95 172.09-20.95 170.19-20.95L170.19-20.95Q168.24-20.95 166.69-19.93 165.14-18.9 164.24-17.13 163.34-15.35 163.34-13.05ZM200.49 0.5L200.49 0.5Q197.29 0.5 194.74-0.58 192.19-1.65 190.41-3.55 188.64-5.45 187.69-7.9 186.74-10.35 186.74-13.05L186.74-13.05Q186.74-15.8 187.69-18.25 188.64-20.7 190.41-22.6 192.19-24.5 194.74-25.58 197.29-26.65 200.49-26.65L200.49-26.65Q203.69-26.65 206.21-25.58 208.74-24.5 210.54-22.6 212.34-20.7 213.26-18.25 214.19-15.8 214.19-13.05L214.19-13.05Q214.19-10.35 213.26-7.9 212.34-5.45 210.56-3.55 208.79-1.65 206.24-0.58 203.69 0.5 200.49 0.5ZM193.64-13.05L193.64-13.05Q193.64-10.75 194.54-8.97 195.44-7.2 196.99-6.2 198.54-5.2 200.49-5.2L200.49-5.2Q202.39-5.2 203.94-6.23 205.49-7.25 206.41-9.03 207.34-10.8 207.34-13.1L207.34-13.1Q207.34-15.35 206.41-17.15 205.49-18.95 203.94-19.95 202.39-20.95 200.49-20.95L200.49-20.95Q198.54-20.95 196.99-19.93 195.44-18.9 194.54-17.13 193.64-15.35 193.64-13.05ZM228.33 0.5L228.33 0.5Q224.98 0.5 221.93-0.6 218.88-1.7 216.68-3.85L216.68-3.85 219.08-8.2Q221.43-6.3 223.71-5.4 225.98-4.5 228.08-4.5L228.08-4.5Q230.03-4.5 231.21-5.2 232.38-5.9 232.38-7.3L232.38-7.3Q232.38-8.25 231.73-8.78 231.08-9.3 229.86-9.7 228.63-10.1 226.88-10.6L226.88-10.6Q223.98-11.55 222.03-12.45 220.08-13.35 219.11-14.73 218.13-16.1 218.13-18.25L218.13-18.25Q218.13-20.85 219.46-22.73 220.78-24.6 223.16-25.65 225.53-26.7 228.73-26.7L228.73-26.7Q231.53-26.7 234.03-25.83 236.53-24.95 238.58-23L238.58-23 235.88-18.75Q233.88-20.3 232.08-21.03 230.28-21.75 228.43-21.75L228.43-21.75Q227.38-21.75 226.46-21.5 225.53-21.25 224.96-20.68 224.38-20.1 224.38-19.05L224.38-19.05Q224.38-18.1 224.91-17.57 225.43-17.05 226.51-16.65 227.58-16.25 229.13-15.75L229.13-15.75Q232.28-14.85 234.46-13.9 236.63-12.95 237.73-11.58 238.83-10.2 238.83-7.8L238.83-7.8Q238.83-3.9 235.98-1.7 233.13 0.5 228.33 0.5ZM257.58-6.65L258.93-1.35Q258.08-1 256.88-0.55 255.68-0.1 254.31 0.18 252.93 0.45 251.53 0.45L251.53 0.45Q249.68 0.45 248.13-0.2 246.58-0.85 245.66-2.27 244.73-3.7 244.73-6L244.73-6 244.73-21.05 241.28-21.05 241.28-26.2 244.73-26.2 244.73-34.7 251.43-34.7 251.43-26.2 256.93-26.2 256.93-21.05 251.43-21.05 251.43-8.25Q251.48-6.9 252.18-6.3 252.88-5.7 253.93-5.7L253.93-5.7Q254.98-5.7 255.98-6.05 256.98-6.4 257.58-6.65L257.58-6.65Z" opacity="1" transform="matrix(1,0,0,1,0,0)" fill="#0080ff" class="wordmark-text-0" data-fill-palette-color="primary" id="text-0"></path></svg></g></svg></g></svg></g></svg></g><g transform="matrix(1,0,0,1,409.0549376777277,0)"><svg viewBox="0 0 114.67812575617783 75.04885469147894" height="75.04885469147894" width="114.67812575617783"><g><svg xmlns="http://www.w3.org/2000/svg" xmlns:xlink="http://www.w3.org/1999/xlink" version="1.1" x="0" y="0" viewBox="7.1105921360393225 25.06 85.77840786396067 56.135999999999996" enable-background="new 0 0 100 100" xml:space="preserve" height="75.04885469147894" width="114.67812575617783" class="icon-icon-0" data-fill-palette-color="accent" id="icon-0"><polygon points="47.526,81.196 59.086,65.618 47.526,50.041 35.966,50.041 47.526,65.618 35.966,81.196 " fill="#0080ff" data-fill-palette-color="accent"></polygon><path d="M43.167 65.618L33.155 52.127 29.01 46.541H73.382C68.6 34.784 54.942 28.397 36.561 28.496 47.22 34.626 47.061 38.757 46.238 41.916 32.078 31.867 17.445 42.617 7.157 25.06 6.055 50.041 24.924 49.705 27.067 55.341 16.279 54.474 13.129 57.346 9.002 62.303 25.265 60.805 29.921 68.994 37.717 72.962z" fill="#0080ff" data-fill-palette-color="accent"></path><polygon points="81.329,65.618 69.769,81.196 81.329,81.196 92.889,65.618 81.329,50.041 69.769,50.041 " fill="#0080ff" data-fill-palette-color="accent"></polygon><polygon points="52.867,50.041 64.427,65.618 52.867,81.196 64.427,81.196 75.987,65.618 64.427,50.041 " fill="#0080ff" data-fill-palette-color="accent"></polygon></svg></g></svg></g></svg></g><defs></defs></svg><rect width="395.52" height="56.67643515372549" fill="none" stroke="none" visibility="hidden"></rect></g></svg></g></svg>
